<?xml version="1.0" encoding="UTF-8" standalone="no"?>
<!-- Created with Inkscape (http://www.inkscape.org/) -->

<svg
   xmlns:dc="http://purl.org/dc/elements/1.1/"
   xmlns:cc="http://creativecommons.org/ns#"
   xmlns:rdf="http://www.w3.org/1999/02/22-rdf-syntax-ns#"
   xmlns:svg="http://www.w3.org/2000/svg"
   xmlns="http://www.w3.org/2000/svg"
   xmlns:sodipodi="http://sodipodi.sourceforge.net/DTD/sodipodi-0.dtd"
   xmlns:inkscape="http://www.inkscape.org/namespaces/inkscape"
   width="247.78239mm"
   height="41.047371mm"
   viewBox="0 0 247.78239 41.047371"
   version="1.1"
   id="svg8"
   inkscape:version="0.92.2 (5c3e80d, 2017-08-06)"
   sodipodi:docname="logo_extracted.svg">
  <defs
     id="defs2" />
  <sodipodi:namedview
     id="base"
     pagecolor="#ffffff"
     bordercolor="#666666"
     borderopacity="1.0"
     inkscape:pageopacity="0.0"
     inkscape:pageshadow="2"
     inkscape:zoom="2.8284271"
     inkscape:cx="553.3286"
     inkscape:cy="73.890081"
     inkscape:document-units="mm"
     inkscape:current-layer="layer1"
     showgrid="false"
     showguides="false"
     inkscape:guide-bbox="true"
     inkscape:window-width="1920"
     inkscape:window-height="986"
     inkscape:window-x="-11"
     inkscape:window-y="-11"
     inkscape:window-maximized="1"
     fit-margin-top="0"
     fit-margin-left="0"
     fit-margin-right="0"
     fit-margin-bottom="0">
    <sodipodi:guide
       position="-1.0710995e-007,0.047329446"
       orientation="0,1"
       id="guide4517"
       inkscape:locked="false" />
    <sodipodi:guide
       position="-1.0710995e-007,0.047359446"
       orientation="1,0"
       id="guide4519"
       inkscape:locked="false" />
    <sodipodi:guide
       position="23,0.047329446"
       orientation="1,0"
       id="guide4533"
       inkscape:locked="false" />
    <sodipodi:guide
       position="15.780509,21.025"
       orientation="1,0"
       id="guide4535"
       inkscape:locked="false" />
    <sodipodi:guide
       position="20.032739,20.26906"
       orientation="1,0"
       id="guide4537"
       inkscape:locked="false" />
    <sodipodi:guide
       position="-1.10711e-006,41.04734"
       orientation="0,1"
       id="guide4544"
       inkscape:locked="false" />
    <sodipodi:guide
       position="23,32.04734"
       orientation="0,1"
       id="guide4548"
       inkscape:locked="false" />
    <sodipodi:guide
       position="22.999999,9.0473596"
       orientation="0,1"
       id="guide4550"
       inkscape:locked="false" />
    <sodipodi:guide
       position="35.324403,9.0473596"
       orientation="1,0"
       id="guide4556"
       inkscape:locked="false" />
    <sodipodi:guide
       position="69.059376,28.04737"
       orientation="1,0"
       id="guide4565"
       inkscape:locked="false" />
    <sodipodi:guide
       position="106.41347,32.047369"
       orientation="1,0"
       id="guide4580"
       inkscape:locked="false" />
  </sodipodi:namedview>
  <metadata
     id="metadata5">
    <rdf:RDF>
      <cc:Work
         rdf:about="">
        <dc:format>image/svg+xml</dc:format>
        <dc:type
           rdf:resource="http://purl.org/dc/dcmitype/StillImage" />
        <dc:title></dc:title>
      </cc:Work>
    </rdf:RDF>
  </metadata>
  <g
     inkscape:label="Logo"
     inkscape:groupmode="layer"
     id="layer1"
     style="display:inline"
     transform="translate(-40.821426,-96.682987)">
    <path
       style="fill:#0052cc;fill-opacity:1;stroke-width:0.26416057"
       d="m 40.821426,96.683021 h 23.000025 v 8.999999 H 50.821437 v 6.99998 h 10.000011 v 9.00002 H 50.821437 v 7 h 13.000014 v 9.00001 H 40.821426 Z"
       id="rect4539"
       inkscape:connector-curvature="0"
       sodipodi:nodetypes="ccccccccccccc" />
    <path
       sodipodi:nodetypes="ccccccc"
       inkscape:connector-curvature="0"
       id="path4554"
       d="m 66.145829,96.683036 9.999998,-1e-5 2e-6,31.999974 h 13 v 9 h -23 z"
       style="fill:#0052cc;fill-opacity:1;stroke-width:0.26416028" />
    <path
       style="fill:#0052cc;fill-opacity:1;stroke-width:0.26632845"
       d="M 106.3808,123.36846 100.53452,111.683 v 26 H 91.534515 V 96.68299 H 103.3808 l 6.5,13 v 0 l 6.5,-13.000001 h 11.84629 l 0.0365,31.302351 -3.53655,9.69766 h -5.5 v -26 l -5.84624,11.68546 z"
       id="rect4558"
       inkscape:connector-curvature="0"
       sodipodi:nodetypes="cccccccccccccccc" />
    <path
       style="fill:#0052cc;fill-opacity:1;stroke-width:0.26458332"
       d="m 137.61574,137.683 h -10.50001 l 14.11916,-41.000013 h 6 l 6,2e-6 14.11916,41.000011 h -10.50001 l -9.61915,-32.00001 z"
       id="path4588"
       inkscape:connector-curvature="0"
       sodipodi:nodetypes="ccccccccc" />
    <g
       aria-label="core"
       style="font-style:normal;font-variant:normal;font-weight:normal;font-stretch:normal;font-size:53.47203064px;line-height:1.25;font-family:Montserrat;-inkscape-font-specification:Montserrat;letter-spacing:0px;word-spacing:0px;fill:#0052cc;fill-opacity:1;stroke:none;stroke-width:0.27850017"
       id="text4643">
      <path
         d="m 197.93509,135.47492 q -2.45428,1.17493 -4.67358,1.82766 -2.19319,0.65274 -4.67358,0.65274 -3.15924,0 -5.79629,-0.91383 -2.63704,-0.93994 -4.51692,-2.81982 -1.90598,-1.87987 -2.95036,-4.75191 -1.04438,-2.87203 -1.04438,-6.71011 0,-7.15397 3.91641,-11.22704 3.94252,-4.07306 10.39154,-4.07306 2.5065,0 4.90856,0.70495 2.42818,0.70496 4.4386,1.72322 v 5.45686 H 197.674 q -2.24541,-1.74932 -4.64747,-2.68926 -2.37596,-0.93994 -4.64748,-0.93994 -4.1775,0 -6.60567,2.81981 -2.40207,2.79371 -2.40207,8.22446 0,5.2741 2.34985,8.12002 2.37595,2.81982 6.65789,2.81982 1.48824,0 3.02869,-0.39164 1.54046,-0.39165 2.7676,-1.01827 1.07048,-0.5483 2.01042,-1.14881 0.93994,-0.62663 1.48824,-1.07049 h 0.26109 z"
         style="font-style:normal;font-variant:normal;font-weight:normal;font-stretch:normal;font-size:53.47203064px;font-family:Montserrat;-inkscape-font-specification:Montserrat;fill:#0052cc;fill-opacity:1;stroke-width:0.27850017"
         id="path24" />
      <path
         d="m 229.1097,122.73354 q 0,7.12787 -3.65531,11.25315 -3.65532,4.12528 -9.79102,4.12528 -6.18793,0 -9.84324,-4.12528 -3.62921,-4.12528 -3.62921,-11.25315 0,-7.12786 3.62921,-11.25314 3.65531,-4.1514 9.84324,-4.1514 6.1357,0 9.79102,4.1514 3.65531,4.12528 3.65531,11.25314 z m -5.06522,0 q 0,-5.66574 -2.2193,-8.40722 -2.2193,-2.7676 -6.16181,-2.7676 -3.99474,0 -6.21404,2.7676 -2.19319,2.74148 -2.19319,8.40722 0,5.48297 2.2193,8.3289 2.2193,2.81981 6.18793,2.81981 3.91641,0 6.1357,-2.7937 2.24541,-2.81982 2.24541,-8.35501 z"
         style="font-style:normal;font-variant:normal;font-weight:normal;font-stretch:normal;font-size:53.47203064px;font-family:Montserrat;-inkscape-font-specification:Montserrat;fill:#0052cc;fill-opacity:1;stroke-width:0.27850017"
         id="path26" />
      <path
         d="m 254.93189,113.49082 h -0.2611 q -1.09659,-0.2611 -2.14097,-0.36553 -1.01826,-0.13055 -2.42817,-0.13055 -2.27152,0 -4.38638,1.01827 -2.11486,0.99215 -4.07306,2.58483 v 20.70474 h -4.90857 v -29.16419 h 4.90857 v 4.30805 q 2.92425,-2.34984 5.14355,-3.31589 2.2454,-0.99216 4.56914,-0.99216 1.27936,0 1.85377,0.0783 0.5744,0.0522 1.72322,0.23499 z"
         style="font-style:normal;font-variant:normal;font-weight:normal;font-stretch:normal;font-size:53.47203064px;font-family:Montserrat;-inkscape-font-specification:Montserrat;fill:#0052cc;fill-opacity:1;stroke-width:0.27850017"
         id="path28" />
      <path
         d="m 284.01775,123.22962 h -21.48803 q 0,2.68927 0.80939,4.69969 0.80939,1.98431 2.2193,3.26367 1.35769,1.25326 3.21145,1.87988 1.87988,0.62663 4.12529,0.62663 2.97647,0 5.97905,-1.17493 3.02869,-1.20103 4.30805,-2.34984 h 0.26109 v 5.35242 q -2.48039,1.04438 -5.06522,1.74933 -2.58483,0.70496 -5.43075,0.70496 -7.25841,0 -11.33148,-3.91641 -4.07306,-3.94252 -4.07306,-11.17482 0,-7.15397 3.89029,-11.35759 3.91641,-4.20361 10.2871,-4.20361 5.90073,0 9.08607,3.44644 3.21146,3.44644 3.21146,9.79102 z m -4.77802,-3.75975 q -0.0261,-3.86419 -1.95821,-5.97905 -1.90598,-2.11486 -5.82239,-2.11486 -3.94252,0 -6.29236,2.32373 -2.32374,2.32374 -2.63705,5.77018 z"
         style="font-style:normal;font-variant:normal;font-weight:normal;font-stretch:normal;font-size:53.47203064px;font-family:Montserrat;-inkscape-font-specification:Montserrat;fill:#0052cc;fill-opacity:1;stroke-width:0.27850017"
         id="path30" />
    </g>
  </g>
</svg>
