<?xml version="1.0" encoding="UTF-8" standalone="no"?>
<!-- Created with Inkscape (http://www.inkscape.org/) -->

<svg
   xmlns:dc="http://purl.org/dc/elements/1.1/"
   xmlns:cc="http://creativecommons.org/ns#"
   xmlns:rdf="http://www.w3.org/1999/02/22-rdf-syntax-ns#"
   xmlns:svg="http://www.w3.org/2000/svg"
   xmlns="http://www.w3.org/2000/svg"
   xmlns:sodipodi="http://sodipodi.sourceforge.net/DTD/sodipodi-0.dtd"
   xmlns:inkscape="http://www.inkscape.org/namespaces/inkscape"
   width="741.22015"
   height="313.30508"
   viewBox="0 0 196.1145 82.895306"
   version="1.1"
   id="svg8"
   inkscape:version="0.92.3 (2405546, 2018-03-11)"
   sodipodi:docname="script_coded_node_base_slim_light_plain.svg">
  <defs
     id="defs2" />
  <sodipodi:namedview
     id="base"
     pagecolor="#ffffff"
     bordercolor="#666666"
     borderopacity="1.0"
     inkscape:pageopacity="0.0"
     inkscape:pageshadow="2"
     inkscape:zoom="1"
     inkscape:cx="81.84894"
     inkscape:cy="131.573"
     inkscape:document-units="px"
     inkscape:current-layer="layer2"
     showgrid="false"
     showguides="true"
     inkscape:guide-bbox="true"
     guidetolerance="50"
     gridtolerance="10000"
     fit-margin-top="10"
     fit-margin-left="10"
     fit-margin-right="10"
     fit-margin-bottom="10"
     inkscape:window-width="1920"
     inkscape:window-height="986"
     inkscape:window-x="-11"
     inkscape:window-y="-11"
     inkscape:window-maximized="1"
     units="px" />
  <metadata
     id="metadata5">
    <rdf:RDF>
      <cc:Work
         rdf:about="">
        <dc:format>image/svg+xml</dc:format>
        <dc:type
           rdf:resource="http://purl.org/dc/dcmitype/StillImage" />
        <dc:title />
      </cc:Work>
    </rdf:RDF>
  </metadata>
  <g
     inkscape:groupmode="layer"
     id="layer3"
     inkscape:label="Logo 1"
     style="opacity:0.231"
     transform="translate(-147.96006,-101.38406)" />
  <g
     inkscape:groupmode="layer"
     id="layer2"
     inkscape:label="Logo"
     transform="translate(-139.39726,-1.4503491)">
    <g
       aria-label="script"
       style="font-style:normal;font-variant:normal;font-weight:300;font-stretch:normal;font-size:50.79999924px;line-height:1.25;font-family:Quicksand;-inkscape-font-specification:'Quicksand Light';letter-spacing:0px;word-spacing:0px;fill:#ffffff;fill-opacity:1;stroke:none;stroke-width:0.26458332"
       id="text828">
      <path
         d="m 142.39869,33.306182 q -0.3556,-0.5588 -0.3556,-0.9652 0,-0.3556 0.4064,-0.6604 0.254,-0.254 0.6096,-0.254 0.508,0 0.8128,0.4064 2.9464,4.2164 8.2296,4.2164 2.6924,0 4.7244,-1.3208 2.032,-1.3716 2.032,-3.6576 0,-2.3368 -1.778,-3.5052 -1.778,-1.1684 -4.8768,-1.9304 -4.1148,-1.016 -6.5024,-2.6924 -2.3368,-1.7272 -2.3368,-4.826 0,-2.9972 2.3876,-4.9276 2.3876,-1.9812 6.1468,-1.9812 2.0828,0 4.1148,0.8128 2.0828,0.8128 3.7592,2.5908 0.3556,0.3048 0.3556,0.7112 0,0.4572 -0.3556,0.8128 -0.4064,0.2032 -0.6604,0.2032 -0.3556,0 -0.6096,-0.3048 -2.6416,-2.8956 -6.8072,-2.8956 -2.6924,0 -4.572,1.3208 -1.8288,1.3208 -1.8288,3.6576 0.1524,2.1844 1.9812,3.4036 1.8796,1.1684 5.4864,2.0828 2.5908,0.6604 4.2672,1.4732 1.7272,0.762 2.7432,2.1844 1.016,1.4224 1.016,3.7084 0,3.2004 -2.4892,5.08 -2.4384,1.8288 -6.4008,1.8288 -5.7912,0 -9.4996,-4.572 z"
         style="font-style:normal;font-variant:normal;font-weight:300;font-stretch:normal;font-size:50.79999924px;font-family:Quicksand;-inkscape-font-specification:'Quicksand Light';stroke-width:0.26458332;fill:#ffffff"
         id="path828"
         inkscape:connector-curvature="0" />
      <path
         d="m 178.45875,11.208182 q 2.1844,0 4.2164,0.508 2.0828,0.508 3.302,1.3716 1.27,0.8128 1.27,1.7272 0,0.4064 -0.3048,0.7112 -0.254,0.3048 -0.6604,0.3048 -0.4572,0 -0.7112,-0.1524 -0.2032,-0.1524 -0.6096,-0.5588 -0.6604,-0.762 -1.3716,-1.1176 -1.8288,-0.8636 -5.1816,-0.8636 -2.8956,0 -5.3848,1.524 -2.4384,1.524 -3.9116,4.1656 -1.4224,2.5908 -1.4224,5.6896 0,3.2512 1.3208,5.8928 1.3716,2.5908 3.81,4.064 2.4892,1.4732 5.588,1.4732 2.032,0 3.2004,-0.3556 1.1684,-0.3556 2.3368,-1.016 0.8128,-0.508 1.4224,-1.1176 0.254,-0.254 0.508,-0.4064 0.254,-0.2032 0.508,-0.2032 0.4064,0 0.6096,0.254 0.254,0.254 0.254,0.6604 0,0.7112 -1.1684,1.7272 -1.1684,0.9652 -3.2512,1.6764 -2.032,0.7112 -4.572,0.7112 -3.6576,0 -6.5532,-1.7272 -2.8448,-1.7272 -4.4704,-4.7752 -1.5748,-3.048 -1.5748,-6.858 0,-3.556 1.5748,-6.604 1.6256,-3.048 4.5212,-4.8768 2.9464,-1.8288 6.7056,-1.8288 z"
         style="font-style:normal;font-variant:normal;font-weight:300;font-stretch:normal;font-size:50.79999924px;font-family:Quicksand;-inkscape-font-specification:'Quicksand Light';stroke-width:0.26458332;fill:#ffffff"
         id="path830"
         inkscape:connector-curvature="0" />
      <path
         d="m 205.01048,11.208182 q 2.3368,0 2.3368,1.1684 0,0.4572 -0.254,0.762 -0.254,0.3048 -0.6604,0.3048 -0.1524,0 -0.762,-0.2032 -0.5588,-0.254 -1.2192,-0.254 -2.0828,0 -4.1656,1.6764 -2.0828,1.6256 -3.4036,4.1656 -1.3208,2.4892 -1.3208,4.826 v 12.7 q 0,0.4064 -0.3048,0.7112 -0.3048,0.3048 -0.7112,0.3048 -0.4572,0 -0.762,-0.3048 -0.254,-0.3048 -0.254,-0.7112 v -23.3172 q 0,-0.4064 0.3048,-0.7112 0.3048,-0.3048 0.7112,-0.3048 0.4572,0 0.7112,0.3048 0.3048,0.3048 0.3048,0.7112 v 5.3848 q 1.1684,-3.0988 3.6068,-5.1308 2.4892,-2.032 5.842,-2.0828 z"
         style="font-style:normal;font-variant:normal;font-weight:300;font-stretch:normal;font-size:50.79999924px;font-family:Quicksand;-inkscape-font-specification:'Quicksand Light';stroke-width:0.26458332;fill:#ffffff"
         id="path832"
         inkscape:connector-curvature="0" />
      <path
         d="m 214.21481,36.354182 q 0,0.4064 -0.3048,0.7112 -0.3048,0.3048 -0.7112,0.3048 -0.4572,0 -0.762,-0.3048 -0.254,-0.3048 -0.254,-0.7112 v -24.13 q 0,-0.4064 0.3048,-0.7112 0.3048,-0.3048 0.7112,-0.3048 0.4572,0 0.7112,0.3048 0.3048,0.3048 0.3048,0.7112 z m -1.016,-28.6003995 q -0.8128,0 -1.3208,-0.4572 -0.4572,-0.4572 -0.4572,-1.1684 v -0.4064 q 0,-0.7112 0.508,-1.1684 0.508,-0.4572 1.3208,-0.4572 0.7112,0 1.1684,0.4572 0.508,0.4572 0.508,1.1684 v 0.4064 q 0,0.7112 -0.508,1.1684 -0.4572,0.4572 -1.2192,0.4572 z"
         style="font-style:normal;font-variant:normal;font-weight:300;font-stretch:normal;font-size:50.79999924px;font-family:Quicksand;-inkscape-font-specification:'Quicksand Light';stroke-width:0.26458332;fill:#ffffff"
         id="path834"
         inkscape:connector-curvature="0" />
      <path
         style="font-style:normal;font-variant:normal;font-weight:300;font-stretch:normal;font-size:50.79999924px;font-family:Quicksand;-inkscape-font-specification:'Quicksand Light';stroke-width:0.99999994;fill:#ffffff"
         d="m 877.5293,421.98438 c -1.152,0 -2.11286,0.38434 -2.88086,1.15234 -0.64,0.768 -0.95899,1.6635 -0.95899,2.6875 0.0185,61.36896 -0.0273,122.70557 -0.0273,184.05664 -3.072,-7.168 -7.9992,-12.99266 -14.7832,-17.47266 -6.784,-4.48 -14.14408,-6.71875 -22.08008,-6.71875 -8.32,0 -15.87225,2.17535 -22.65625,6.52735 -6.784,4.352 -12.15896,10.36883 -16.12696,18.04882 -3.83999,7.68 -5.76171,16.25457 -5.76171,25.72657 0,9.472 1.92172,18.04851 5.76171,25.72851 3.968,7.68 9.34296,13.76024 16.12696,18.24024 6.784,4.352 14.33625,6.52734 22.65625,6.52734 8.192,0 15.61548,-2.30411 22.27148,-6.91211 6.656,-4.608 11.5198,-10.30389 14.5918,-17.08789 v 18.24024 c 0,1.024 0.32094,1.9195 0.96094,2.6875 0.768,0.768 1.7269,1.15234 2.8789,1.15234 1.024,0 1.92146,-0.38434 2.68946,-1.15234 0.768,-0.768 1.15234,-1.6635 1.15234,-2.6875 -0.0233,-60.91613 0.0254,-121.81278 0.0254,-182.7129 4.096,7.04 9.34414,12.48032 15.74414,16.32032 6.4,3.84 13.43914,5.75976 21.11914,5.75976 8.32,0 15.87225,-2.11193 22.65625,-6.33593 6.784,-4.352 12.09555,-10.24007 15.93555,-17.66407 3.968,-7.552 5.95312,-15.93634 5.95312,-25.15234 0,-9.344 -1.91976,-17.72834 -5.75976,-25.15234 -3.84,-7.424 -9.15155,-13.24671 -15.93555,-17.47071 -6.784,-4.224 -14.40161,-6.33593 -22.84961,-6.33593 -7.936,0 -15.1039,1.791 -21.5039,5.375 -6.4,3.45599 -11.51938,8.8329 -15.35938,16.1289 v -17.66406 c 0,-1.024 -0.38434,-1.9195 -1.15234,-2.6875 -0.64,-0.768 -1.5355,-1.15234 -2.6875,-1.15234 z m 40.32031,7.29492 c 7.04,0 13.37581,1.79295 19.00781,5.37695 5.632,3.584 10.04805,8.57461 13.24805,14.97461 3.328,6.272 4.99219,13.3765 4.99219,21.3125 0,7.936 -1.66419,15.10391 -4.99219,21.50391 -3.2,6.4 -7.61605,11.39256 -13.24805,14.97656 -5.632,3.584 -11.96781,5.37695 -19.00781,5.37695 -7.168,0 -13.63258,-1.79295 -19.39258,-5.37695 -5.632,-3.584 -10.04805,-8.51121 -13.24805,-14.78321 -3.072,-6.39999 -4.60742,-13.63326 -4.60742,-21.69726 0,-8.064 1.53542,-15.23191 4.60742,-21.50391 3.2,-6.4 7.61605,-11.3272 13.24805,-14.7832 5.76,-3.584 12.22458,-5.37695 19.39258,-5.37695 z m -80.66602,163.70508 c 7.04,0 13.37582,1.85635 19.00782,5.56835 5.76,3.712 10.23945,8.83138 13.43945,15.35938 3.2,6.528 4.80078,13.88808 4.80078,22.08008 0,8.192 -1.60078,15.61744 -4.80078,22.27343 -3.2,6.528 -7.61605,11.64738 -13.24805,15.35938 -5.632,3.712 -12.03122,5.56836 -19.19922,5.56836 -7.04,0 -13.37581,-1.85636 -19.00781,-5.56836 -5.632,-3.84 -10.11341,-9.02473 -13.4414,-15.55273 -3.2,-6.528 -4.79883,-13.88808 -4.79883,-22.08008 0,-8.064 1.59883,-15.35872 4.79883,-21.88672 3.32799,-6.656 7.8094,-11.84074 13.4414,-15.55274 5.76,-3.712 12.09581,-5.56835 19.00781,-5.56835 z"
         transform="matrix(0.26458334,0,0,0.26458334,-8.562806,-99.933709)"
         id="path836"
         inkscape:connector-curvature="0"
         sodipodi:nodetypes="scccssscsccsscscssccssccssssccscssscscssccsccsscsscssccsccs" />
      <path
         d="m 262.3113,11.817782 q 0.3556,0 0.6604,0.3048 0.3048,0.3048 0.3048,0.6604 0,0.4064 -0.3048,0.7112 -0.254,0.254 -0.6604,0.254 h -5.588 v 18.0848 q 0,2.2352 0.762,2.9972 0.8128,0.7112 2.032,0.7112 0.2032,0 0.5588,-0.1016 0.4064,-0.1016 0.6604,-0.1016 0.3556,0 0.6096,0.3048 0.254,0.254 0.254,0.6096 0,0.4572 -0.6096,0.8128 -0.6096,0.3048 -1.4224,0.3048 -1.27,0 -2.1336,-0.1524 -0.8636,-0.2032 -1.8288,-1.3716 -0.9144,-1.2192 -0.9144,-3.9116 v -18.1864 h -4.1656 q -0.3556,0 -0.6604,-0.3048 -0.3048,-0.3048 -0.3048,-0.6604 0,-0.4064 0.254,-0.6604 0.3048,-0.3048 0.7112,-0.3048 h 4.1656 V 5.3661825 q 0,-0.4064 0.3048,-0.7112 0.3048,-0.3048 0.7112,-0.3048 0.4572,0 0.7112,0.3048 0.3048,0.3048 0.3048,0.7112 v 6.4515995 z"
         style="font-style:normal;font-variant:normal;font-weight:300;font-stretch:normal;font-size:50.79999924px;font-family:Quicksand;-inkscape-font-specification:'Quicksand Light';stroke-width:0.26458332;fill:#ffffff"
         id="path838"
         inkscape:connector-curvature="0" />
    </g>
    <g
       aria-label="coded's"
       style="font-style:normal;font-variant:normal;font-weight:300;font-stretch:normal;font-size:50.79999924px;line-height:1.25;font-family:Quicksand;-inkscape-font-specification:'Quicksand Light';letter-spacing:0px;word-spacing:0px;fill:#ffffff;fill-opacity:1;stroke:none;stroke-width:0.26458332"
       id="text828-8">
      <path
         d="m 157.79763,55.029819 q 2.1844,0 4.2164,0.508 2.0828,0.508 3.302,1.3716 1.27,0.8128 1.27,1.7272 0,0.4064 -0.3048,0.7112 -0.254,0.3048 -0.6604,0.3048 -0.4572,0 -0.7112,-0.1524 -0.2032,-0.1524 -0.6096,-0.5588 -0.6604,-0.762 -1.3716,-1.1176 -1.8288,-0.8636 -5.1816,-0.8636 -2.8956,0 -5.3848,1.524 -2.4384,1.524 -3.9116,4.1656 -1.4224,2.590799 -1.4224,5.689599 0,3.2512 1.3208,5.8928 1.3716,2.5908 3.81,4.064 2.4892,1.4732 5.588,1.4732 2.032,0 3.2004,-0.3556 1.1684,-0.3556 2.3368,-1.016 0.8128,-0.508 1.4224,-1.1176 0.254,-0.254 0.508,-0.4064 0.254,-0.2032 0.508,-0.2032 0.4064,0 0.6096,0.254 0.254,0.254 0.254,0.6604 0,0.7112 -1.1684,1.7272 -1.1684,0.9652 -3.2512,1.6764 -2.032,0.7112 -4.572,0.7112 -3.6576,0 -6.5532,-1.7272 -2.8448,-1.7272 -4.4704,-4.7752 -1.5748,-3.048 -1.5748,-6.858 0,-3.556 1.5748,-6.603999 1.6256,-3.048 4.5212,-4.8768 2.9464,-1.8288 6.7056,-1.8288 z"
         style="font-style:normal;font-variant:normal;font-weight:300;font-stretch:normal;font-size:50.79999924px;font-family:Quicksand;-inkscape-font-specification:'Quicksand Light';stroke-width:0.26458332;fill:#ffffff"
         id="path841"
         inkscape:connector-curvature="0" />
      <path
         d="m 196.13496,68.390218 q 0,3.7592 -1.6256,6.8072 -1.6256,2.9972 -4.5212,4.7752 -2.8448,1.7272 -6.35,1.7272 -3.5052,0 -6.4008,-1.7272 -2.8448,-1.778 -4.5212,-4.826 -1.6256,-3.048 -1.6256,-6.7564 0,-3.7592 1.6256,-6.807199 1.6764,-3.048 4.5212,-4.7752 2.8448,-1.778 6.4008,-1.778 3.5052,0 6.35,1.778 2.8956,1.7272 4.5212,4.7752 1.6256,3.047999 1.6256,6.807199 z m -2.032,0 q 0,-3.2512 -1.3716,-5.841999 -1.3208,-2.5908 -3.7084,-4.064 -2.3876,-1.524 -5.3848,-1.524 -2.9464,0 -5.3848,1.524 -2.3876,1.4732 -3.7592,4.064 -1.3716,2.590799 -1.3716,5.841999 0,3.2004 1.3716,5.7912 1.3716,2.5908 3.7592,4.1148 2.4384,1.4732 5.3848,1.4732 2.9972,0 5.3848,-1.4732 2.3876,-1.4732 3.7084,-4.064 1.3716,-2.6416 1.3716,-5.842 z"
         style="font-style:normal;font-variant:normal;font-weight:300;font-stretch:normal;font-size:50.79999924px;font-family:Quicksand;-inkscape-font-specification:'Quicksand Light';stroke-width:0.26458332;fill:#ffffff"
         id="path843"
         inkscape:connector-curvature="0" />
      <path
         d="m 253.16034,75.095818 q 0.3556,0 0.6096,0.3048 0.254,0.254 0.254,0.6096 0,0.3556 -0.2032,0.6096 -1.6764,2.2352 -4.1656,3.6576 -2.4892,1.4224 -5.334,1.4224 -3.81,0 -6.7564,-1.6256 -2.9464,-1.6256 -4.6228,-4.6228 -1.6256,-2.9972 -1.6256,-6.9596 0,-4.064 1.5748,-7.111999 1.6256,-3.0988 4.2672,-4.7244 2.6416,-1.6256 5.6388,-1.6256 2.9972,0 5.5372,1.3208 2.5908,1.27 4.2164,3.8608 1.6256,2.5908 1.7272,6.400799 0,0.4064 -0.3048,0.762 -0.3048,0.3048 -0.7112,0.3048 h -19.9644 v 0.6604 q 0,3.1496 1.27,5.7912 1.27,2.5908 3.7592,4.1148 2.4892,1.524 5.9944,1.524 2.4384,0 4.572,-1.1684 2.1844,-1.2192 3.4036,-3.048 0.3556,-0.4572 0.8636,-0.4572 z m -10.3632,-18.033999 q -1.8796,0 -3.8608,1.016 -1.9304,0.9652 -3.4544,2.9464 -1.4732,1.9304 -1.9812,4.724399 h 18.6944 v -0.4572 q -0.254,-2.590799 -1.6764,-4.419599 -1.3716,-1.8796 -3.4544,-2.8448 -2.032,-0.9652 -4.2672,-0.9652 z"
         style="font-style:normal;font-variant:normal;font-weight:300;font-stretch:normal;font-size:50.79999924px;font-family:Quicksand;-inkscape-font-specification:'Quicksand Light';stroke-width:0.26458332;fill:#ffffff"
         id="path847"
         inkscape:connector-curvature="0" />
      <path
         d="m 281.75201,43.599819 q 0.4572,0 0.7112,0.3048 0.3048,0.3048 0.3048,0.7112 v 35.559999 q 0,0.4064 -0.3048,0.7112 -0.3048,0.3048 -0.7112,0.3048 -0.4572,0 -0.762,-0.3048 -0.254,-0.3048 -0.254,-0.7112 v -4.826 q -1.2192,2.6924 -3.8608,4.5212 -2.6416,1.8288 -5.8928,1.8288 -3.302,0 -5.9944,-1.7272 -2.6924,-1.778 -4.2672,-4.826 -1.524,-3.048 -1.524,-6.8072 0,-3.7592 1.524,-6.807199 1.5748,-3.048 4.2672,-4.7752 2.6924,-1.7272 5.9944,-1.7272 3.1496,0 5.842,1.778 2.6924,1.778 3.9116,4.6228 v -16.8148 q 0,-0.4064 0.254,-0.7112 0.3048,-0.3048 0.762,-0.3048 z m -10.668,36.169599 q 2.8448,0 5.08,-1.4732 2.2352,-1.4732 3.5052,-4.064 1.27,-2.6416 1.27,-5.8928 0,-3.2512 -1.27,-5.841999 -1.27,-2.5908 -3.556,-4.064 -2.2352,-1.4732 -5.0292,-1.4732 -2.7432,0 -5.0292,1.4732 -2.2352,1.4732 -3.556,4.1148 -1.27,2.590799 -1.27,5.791199 0,3.2512 1.27,5.842 1.3208,2.5908 3.556,4.1148 2.2352,1.4732 5.0292,1.4732 z"
         style="font-style:normal;font-variant:normal;font-weight:300;font-stretch:normal;font-size:50.79999924px;font-family:Quicksand;-inkscape-font-specification:'Quicksand Light';stroke-width:0.26458332;fill:#ffffff"
         id="path849"
         inkscape:connector-curvature="0" />
      <path
         d="m 290.88093,46.597019 q 0.1524,-0.9652 1.1176,-0.9652 h 1.6764 q 0.7112,0.0508 0.4572,0.9652 l -3.1496,11.0744 q -0.2032,0.8636 -1.1684,0.8636 -0.5588,0 -0.4064,-1.0668 z"
         style="font-style:normal;font-variant:normal;font-weight:300;font-stretch:normal;font-size:50.79999924px;font-family:Quicksand;-inkscape-font-specification:'Quicksand Light';stroke-width:0.26458332;fill:#ffffff"
         id="path851"
         inkscape:connector-curvature="0" />
      <path
         d="m 299.33914,77.127818 q -0.3556,-0.5588 -0.3556,-0.9652 0,-0.3556 0.4064,-0.6604 0.254,-0.254 0.6096,-0.254 0.508,0 0.8128,0.4064 2.9464,4.2164 8.2296,4.2164 2.6924,0 4.7244,-1.3208 2.032,-1.3716 2.032,-3.6576 0,-2.3368 -1.778,-3.5052 -1.778,-1.1684 -4.8768,-1.9304 -4.1148,-1.016 -6.5024,-2.6924 -2.3368,-1.7272 -2.3368,-4.825999 0,-2.9972 2.3876,-4.9276 2.3876,-1.9812 6.1468,-1.9812 2.0828,0 4.1148,0.8128 2.0828,0.8128 3.7592,2.5908 0.3556,0.3048 0.3556,0.7112 0,0.4572 -0.3556,0.8128 -0.4064,0.2032 -0.6604,0.2032 -0.3556,0 -0.6096,-0.3048 -2.6416,-2.8956 -6.8072,-2.8956 -2.6924,0 -4.572,1.3208 -1.8288,1.3208 -1.8288,3.6576 0.1524,2.184399 1.9812,3.403599 1.8796,1.1684 5.4864,2.0828 2.5908,0.6604 4.2672,1.4732 1.7272,0.762 2.7432,2.1844 1.016,1.4224 1.016,3.7084 0,3.2004 -2.4892,5.08 -2.4384,1.8288 -6.4008,1.8288 -5.7912,0 -9.4996,-4.572 z"
         style="font-style:normal;font-variant:normal;font-weight:300;font-stretch:normal;font-size:50.79999924px;font-family:Quicksand;-inkscape-font-specification:'Quicksand Light';stroke-width:0.26458332;fill:#ffffff"
         id="path853"
         inkscape:connector-curvature="0" />
    </g>
    <g
       aria-label="node.js"
       style="font-style:normal;font-weight:normal;font-size:16.22777748px;line-height:1.25;font-family:sans-serif;letter-spacing:0px;word-spacing:0px;fill:#ffffff;fill-opacity:1;stroke:none;stroke-width:0.26458332"
       id="text891">
      <path
         d="m 277.5419,9.5927163 q 1.44427,0 2.17452,0.8600727 0.73025,0.843844 0.73025,2.206977 v 4.9657 q 0,0.129822 -0.0974,0.227189 -0.0974,0.09737 -0.22719,0.09737 -0.14605,0 -0.24342,-0.09737 -0.0811,-0.09737 -0.0811,-0.227189 v -4.900789 q 0,-1.103488 -0.5842,-1.801283 -0.56797,-0.714022 -1.73637,-0.714022 -0.71402,0 -1.41182,0.340783 -0.68156,0.340784 -1.11971,0.924984 -0.43815,0.5842 -0.43815,1.249538 v 4.900789 q 0,0.129822 -0.0974,0.227189 -0.0974,0.09737 -0.22719,0.09737 -0.14605,0 -0.24341,-0.09737 -0.0811,-0.09737 -0.0811,-0.227189 v -7.44855 q 0,-0.129822 0.0974,-0.2271886 0.0974,-0.097367 0.22719,-0.097367 0.14605,0 0.22719,0.097367 0.0974,0.097367 0.0974,0.2271886 v 1.087261 q 0.4706,-0.73025 1.31445,-1.200855 0.86007,-0.4706057 1.72014,-0.4706057 z"
         style="font-style:normal;font-variant:normal;font-weight:300;font-stretch:normal;font-family:Quicksand;-inkscape-font-specification:'Quicksand Light';stroke-width:0.26458332;fill:#ffffff"
         id="path856"
         inkscape:connector-curvature="0" />
      <path
         d="m 290.57712,13.860622 q 0,1.200855 -0.51929,2.174522 -0.51929,0.957439 -1.44427,1.525411 -0.90876,0.551745 -2.02847,0.551745 -1.11972,0 -2.0447,-0.551745 -0.90876,-0.567972 -1.44428,-1.541639 -0.51929,-0.973666 -0.51929,-2.158294 0,-1.200856 0.51929,-2.174522 0.53552,-0.973667 1.44428,-1.525411 0.90875,-0.5679727 2.0447,-0.5679727 1.11971,0 2.02847,0.5679727 0.92498,0.551744 1.44427,1.525411 0.51929,0.973666 0.51929,2.174522 z m -0.64911,0 q 0,-1.038578 -0.43815,-1.866195 -0.42193,-0.827616 -1.18463,-1.298222 -0.76271,-0.486833 -1.72014,-0.486833 -0.94122,0 -1.72015,0.486833 -0.7627,0.470606 -1.20085,1.298222 -0.43815,0.827617 -0.43815,1.866195 0,1.02235 0.43815,1.849966 0.43815,0.827617 1.20085,1.31445 0.77893,0.470606 1.72015,0.470606 0.95743,0 1.72014,-0.470606 0.7627,-0.470605 1.18463,-1.298222 0.43815,-0.843844 0.43815,-1.866194 z"
         style="font-style:normal;font-variant:normal;font-weight:300;font-stretch:normal;font-family:Quicksand;-inkscape-font-specification:'Quicksand Light';stroke-width:0.26458332;fill:#ffffff"
         id="path858"
         inkscape:connector-curvature="0" />
      <path
         d="m 299.35381,5.9414664 q 0.14605,0 0.22719,0.097367 0.0974,0.097367 0.0974,0.2271889 V 17.625466 q 0,0.129822 -0.0974,0.227189 -0.0974,0.09737 -0.22719,0.09737 -0.14605,0 -0.24342,-0.09737 -0.0811,-0.09737 -0.0811,-0.227189 v -1.541639 q -0.38946,0.860073 -1.23331,1.444273 -0.84384,0.5842 -1.88242,0.5842 -1.0548,0 -1.91488,-0.551745 -0.86007,-0.567972 -1.36313,-1.541639 -0.48683,-0.973666 -0.48683,-2.174522 0,-1.200855 0.48683,-2.174522 0.50306,-0.973667 1.36313,-1.525411 0.86008,-0.5517444 1.91488,-0.5517444 1.00612,0 1.8662,0.5679724 0.86007,0.567972 1.24953,1.476727 V 6.266022 q 0,-0.1298223 0.0811,-0.2271889 0.0974,-0.097367 0.24342,-0.097367 z m -3.40783,11.5541776 q 0.90875,0 1.62277,-0.470606 0.71403,-0.470605 1.11972,-1.298222 0.4057,-0.843844 0.4057,-1.882422 0,-1.038578 -0.4057,-1.866194 -0.40569,-0.827617 -1.13594,-1.298223 -0.71403,-0.470605 -1.60655,-0.470605 -0.8763,0 -1.60655,0.470605 -0.71403,0.470606 -1.13595,1.31445 -0.40569,0.827617 -0.40569,1.849967 0,1.038578 0.40569,1.866194 0.42192,0.827617 1.13595,1.31445 0.71402,0.470606 1.60655,0.470606 z"
         style="font-style:normal;font-variant:normal;font-weight:300;font-stretch:normal;font-family:Quicksand;-inkscape-font-specification:'Quicksand Light';stroke-width:0.26458332;fill:#ffffff"
         id="path860"
         inkscape:connector-curvature="0" />
      <path
         d="m 308.79356,16.002688 q 0.11359,0 0.19473,0.09737 0.0811,0.08114 0.0811,0.194733 0,0.113595 -0.0649,0.194734 -0.53552,0.714022 -1.33068,1.1684 -0.79516,0.454378 -1.70391,0.454378 -1.21709,0 -2.1583,-0.519289 -0.94121,-0.519289 -1.47673,-1.476728 -0.51928,-0.957439 -0.51928,-2.223206 0,-1.298222 0.50306,-2.271888 0.51929,-0.989895 1.36313,-1.509184 0.84384,-0.5192887 1.80128,-0.5192887 0.95744,0 1.76883,0.4219227 0.82762,0.405694 1.34691,1.233311 0.51929,0.827616 0.55174,2.0447 0,0.129822 -0.0974,0.243416 -0.0974,0.09737 -0.22718,0.09737 h -6.37752 V 13.8444 q 0,1.006122 0.40569,1.849967 0.4057,0.827616 1.20086,1.31445 0.79516,0.486833 1.91488,0.486833 0.77893,0 1.4605,-0.373239 0.69779,-0.389467 1.08726,-0.973667 0.11359,-0.14605 0.27587,-0.14605 z m -3.31047,-5.760861 q -0.60042,0 -1.23331,0.324556 -0.61665,0.308328 -1.10349,0.941211 -0.4706,0.616656 -0.63288,1.509183 h 5.97182 v -0.14605 q -0.0811,-0.827616 -0.53551,-1.411816 -0.43815,-0.600428 -1.10349,-0.908756 -0.64911,-0.308328 -1.36314,-0.308328 z"
         style="font-style:normal;font-variant:normal;font-weight:300;font-stretch:normal;font-family:Quicksand;-inkscape-font-specification:'Quicksand Light';stroke-width:0.26458332;fill:#ffffff"
         id="path862"
         inkscape:connector-curvature="0" />
      <path
         d="m 311.19248,17.950022 q -0.21096,0 -0.32456,-0.129822 -0.11359,-0.14605 -0.11359,-0.373239 v -0.373239 q 0,-0.227189 0.11359,-0.357011 0.1136,-0.14605 0.32456,-0.14605 h 0.0649 q 0.21096,0 0.32456,0.14605 0.11359,0.129822 0.11359,0.357011 v 0.373239 q 0,0.227189 -0.11359,0.373239 -0.1136,0.129822 -0.32456,0.129822 z"
         style="font-style:normal;font-variant:normal;font-weight:300;font-stretch:normal;font-family:Quicksand;-inkscape-font-specification:'Quicksand Light';stroke-width:0.26458332;fill:#ffffff"
         id="path864"
         inkscape:connector-curvature="0" />
      <path
         d="m 312.494,21.163122 q -0.14605,0 -0.22719,-0.08114 -0.0811,-0.08114 -0.0811,-0.210961 v -0.03246 q 0,-0.113594 0.0811,-0.210961 0.0811,-0.08114 0.21096,-0.09737 0.63288,-0.09737 1.10349,-0.503061 0.48683,-0.405694 0.48683,-1.135944 v -8.730544 q 0,-0.129823 0.0811,-0.2271893 0.0974,-0.097367 0.24342,-0.097367 0.14605,0 0.22719,0.097367 0.0974,0.097366 0.0974,0.2271893 v 8.730544 q 0,0.681566 -0.35701,1.200855 -0.35701,0.519289 -0.8763,0.795161 -0.51929,0.275873 -0.98989,0.275873 z m 1.89865,-12.6901223 q -0.25965,0 -0.42192,-0.14605 -0.14605,-0.14605 -0.14605,-0.3732389 V 7.8238886 q 0,-0.2271889 0.16227,-0.3732389 0.16228,-0.14605 0.42193,-0.14605 0.22719,0 0.37324,0.14605 0.16227,0.14605 0.16227,0.3732389 v 0.1298222 q 0,0.2271889 -0.16227,0.3732389 -0.14605,0.14605 -0.38947,0.14605 z"
         style="font-style:normal;font-variant:normal;font-weight:300;font-stretch:normal;font-family:Quicksand;-inkscape-font-specification:'Quicksand Light';stroke-width:0.26458332;fill:#ffffff"
         id="path866"
         inkscape:connector-curvature="0" />
      <path
         d="m 317.74495,16.6518 q -0.11359,-0.178506 -0.11359,-0.308328 0,-0.113595 0.12982,-0.210961 0.0811,-0.08114 0.19473,-0.08114 0.16228,0 0.25965,0.129822 0.94121,1.346906 2.6289,1.346906 0.86007,0 1.50918,-0.421923 0.64911,-0.43815 0.64911,-1.1684 0,-0.746477 -0.56797,-1.119716 -0.56797,-0.373239 -1.55787,-0.616656 -1.31445,-0.324555 -2.07715,-0.860072 -0.74648,-0.551744 -0.74648,-1.541639 0,-0.957439 0.76271,-1.574094 0.7627,-0.6328837 1.96356,-0.6328837 0.66534,0 1.31445,0.2596445 0.66534,0.2596442 1.20085,0.8276162 0.1136,0.09737 0.1136,0.227189 0,0.14605 -0.1136,0.259645 -0.12982,0.06491 -0.21096,0.06491 -0.11359,0 -0.19473,-0.09737 -0.84385,-0.924983 -2.17452,-0.924983 -0.86008,0 -1.4605,0.421922 -0.5842,0.421922 -0.5842,1.1684 0.0487,0.697795 0.63288,1.087261 0.60043,0.373239 1.7526,0.665339 0.82762,0.210961 1.36313,0.470606 0.55175,0.243416 0.8763,0.697794 0.32456,0.454378 0.32456,1.184628 0,1.02235 -0.79516,1.622778 -0.77894,0.5842 -2.0447,0.5842 -1.84997,0 -3.0346,-1.4605 z"
         style="font-style:normal;font-variant:normal;font-weight:300;font-stretch:normal;font-family:Quicksand;-inkscape-font-specification:'Quicksand Light';stroke-width:0.26458332;fill:#ffffff"
         id="path868"
         inkscape:connector-curvature="0" />
    </g>
    <g
       aria-label="baseline"
       style="font-style:normal;font-weight:normal;font-size:16.22777748px;line-height:1.25;font-family:sans-serif;letter-spacing:0px;word-spacing:0px;fill:#ffffff;fill-opacity:1;stroke:none;stroke-width:0.26458332"
       id="text899">
      <path
         d="m 277.9476,30.148543 q 1.07103,0 1.9311,0.551744 0.86007,0.535517 1.34691,1.509183 0.48683,0.957439 0.48683,2.158295 0,1.200855 -0.50306,2.19075 -0.48683,0.973666 -1.34691,1.541638 -0.86007,0.567973 -1.91487,0.567973 -0.95744,0 -1.76883,-0.503061 -0.81139,-0.519289 -1.34691,-1.428045 v 1.444272 q 0,0.129823 -0.0974,0.227189 -0.0811,0.09737 -0.22719,0.09737 -0.12983,0 -0.22719,-0.09737 -0.0974,-0.09737 -0.0974,-0.227189 V 26.838076 q 0,-0.129822 0.0811,-0.227189 0.0974,-0.09737 0.24342,-0.09737 0.14605,0 0.22719,0.09737 0.0974,0.09737 0.0974,0.227189 v 5.290255 q 0.48684,-0.957438 1.29822,-1.4605 0.82762,-0.519288 1.81752,-0.519288 z m -0.0325,7.902927 q 0.89253,0 1.60655,-0.486833 0.71402,-0.486833 1.11972,-1.31445 0.42192,-0.843845 0.42192,-1.882422 0,-1.038578 -0.42192,-1.849967 -0.4057,-0.827617 -1.11972,-1.281994 -0.71402,-0.470606 -1.60655,-0.470606 -0.90876,0 -1.63901,0.470606 -0.71402,0.454377 -1.11971,1.281994 -0.38947,0.811389 -0.38947,1.849967 0,1.038577 0.4057,1.882422 0.40569,0.843844 1.11971,1.330678 0.71402,0.470605 1.62278,0.470605 z"
         style="font-style:normal;font-variant:normal;font-weight:300;font-stretch:normal;font-family:Quicksand;-inkscape-font-specification:'Quicksand Light';stroke-width:0.26458332;fill:#ffffff"
         id="path871"
         inkscape:connector-curvature="0" />
      <path
         d="m 290.48685,30.408187 q 0.14605,0 0.22719,0.09737 0.0974,0.09737 0.0974,0.227189 v 7.448549 q 0,0.129823 -0.0974,0.227189 -0.0974,0.09737 -0.22719,0.09737 -0.14605,0 -0.24342,-0.09737 -0.0811,-0.09737 -0.0811,-0.227189 v -1.4605 q -0.40569,0.827617 -1.24953,1.395589 -0.84385,0.551745 -1.8662,0.551745 -1.07103,0 -1.9311,-0.551745 -0.86008,-0.567972 -1.34691,-1.541639 -0.48683,-0.989894 -0.48683,-2.206977 0,-1.200856 0.48683,-2.158295 0.50306,-0.973666 1.36313,-1.509183 0.86008,-0.551744 1.91488,-0.551744 1.05481,0 1.89865,0.551744 0.84385,0.551744 1.21708,1.476728 v -1.444272 q 0,-0.129823 0.0811,-0.227189 0.0974,-0.09737 0.24342,-0.09737 z m -3.40783,7.643283 q 0.89252,0 1.60655,-0.470605 0.73025,-0.486834 1.13594,-1.330678 0.4057,-0.843845 0.4057,-1.882422 0,-0.989895 -0.4057,-1.817511 -0.40569,-0.827617 -1.13594,-1.298223 -0.71403,-0.486833 -1.60655,-0.486833 -0.89253,0 -1.62278,0.470606 -0.71402,0.454377 -1.11972,1.281994 -0.40569,0.811389 -0.40569,1.849967 0,1.038577 0.40569,1.882422 0.4057,0.843844 1.11972,1.330678 0.71402,0.470605 1.62278,0.470605 z"
         style="font-style:normal;font-variant:normal;font-weight:300;font-stretch:normal;font-family:Quicksand;-inkscape-font-specification:'Quicksand Light';stroke-width:0.26458332;fill:#ffffff"
         id="path873"
         inkscape:connector-curvature="0" />
      <path
         d="m 293.06225,37.207626 q -0.1136,-0.178506 -0.1136,-0.308328 0,-0.113594 0.12983,-0.210961 0.0811,-0.08114 0.19473,-0.08114 0.16228,0 0.25964,0.129822 0.94122,1.346906 2.6289,1.346906 0.86008,0 1.50919,-0.421922 0.64911,-0.43815 0.64911,-1.1684 0,-0.746478 -0.56797,-1.119717 -0.56798,-0.373239 -1.55787,-0.616656 -1.31445,-0.324555 -2.07716,-0.860072 -0.74647,-0.551744 -0.74647,-1.541639 0,-0.957439 0.7627,-1.574094 0.76271,-0.632883 1.96356,-0.632883 0.66534,0 1.31445,0.259644 0.66534,0.259644 1.20086,0.827617 0.11359,0.09737 0.11359,0.227189 0,0.14605 -0.11359,0.259644 -0.12982,0.06491 -0.21096,0.06491 -0.1136,0 -0.19474,-0.09737 -0.84384,-0.924983 -2.17452,-0.924983 -0.86007,0 -1.4605,0.421922 -0.5842,0.421923 -0.5842,1.1684 0.0487,0.697795 0.63289,1.087261 0.60042,0.373239 1.7526,0.665339 0.82761,0.210961 1.36313,0.470606 0.55174,0.243416 0.8763,0.697794 0.32455,0.454378 0.32455,1.184628 0,1.02235 -0.79516,1.622778 -0.77893,0.5842 -2.0447,0.5842 -1.84996,0 -3.03459,-1.4605 z"
         style="font-style:normal;font-variant:normal;font-weight:300;font-stretch:normal;font-family:Quicksand;-inkscape-font-specification:'Quicksand Light';stroke-width:0.26458332;fill:#ffffff"
         id="path875"
         inkscape:connector-curvature="0" />
      <path
         d="m 307.46998,36.558515 q 0.11359,0 0.19473,0.09737 0.0811,0.08114 0.0811,0.194734 0,0.113594 -0.0649,0.194733 -0.53552,0.714022 -1.33068,1.1684 -0.79516,0.454378 -1.70391,0.454378 -1.21709,0 -2.1583,-0.519289 -0.94121,-0.519289 -1.47673,-1.476728 -0.51928,-0.957439 -0.51928,-2.223205 0,-1.298223 0.50306,-2.271889 0.51929,-0.989895 1.36313,-1.509184 0.84384,-0.519288 1.80128,-0.519288 0.95744,0 1.76883,0.421922 0.82762,0.405694 1.34691,1.233311 0.51929,0.827616 0.55174,2.0447 0,0.129822 -0.0974,0.243416 -0.0974,0.09737 -0.22718,0.09737 h -6.37752 v 0.210961 q 0,1.006122 0.40569,1.849967 0.4057,0.827617 1.20086,1.31445 0.79516,0.486833 1.91488,0.486833 0.77893,0 1.4605,-0.373239 0.69779,-0.389466 1.08726,-0.973666 0.11359,-0.14605 0.27587,-0.14605 z m -3.31047,-5.760861 q -0.60042,0 -1.23331,0.324555 -0.61665,0.308328 -1.10349,0.941211 -0.4706,0.616656 -0.63288,1.509184 h 5.97182 v -0.14605 q -0.0811,-0.827617 -0.53551,-1.411817 -0.43815,-0.600428 -1.10349,-0.908756 -0.64911,-0.308327 -1.36314,-0.308327 z"
         style="font-style:normal;font-variant:normal;font-weight:300;font-stretch:normal;font-family:Quicksand;-inkscape-font-specification:'Quicksand Light';stroke-width:0.26458332;fill:#ffffff"
         id="path877"
         inkscape:connector-curvature="0" />
      <path
         d="m 310.69652,38.181292 q 0,0.129823 -0.0974,0.227189 -0.0974,0.09737 -0.22719,0.09737 -0.14605,0 -0.24341,-0.09737 -0.0811,-0.09737 -0.0811,-0.227189 V 26.821848 q 0,-0.129822 0.0974,-0.227189 0.0974,-0.09737 0.22719,-0.09737 0.14605,0 0.22719,0.09737 0.0974,0.09737 0.0974,0.227189 z"
         style="font-style:normal;font-variant:normal;font-weight:300;font-stretch:normal;font-family:Quicksand;-inkscape-font-specification:'Quicksand Light';stroke-width:0.26458332;fill:#ffffff"
         id="path879"
         inkscape:connector-curvature="0" />
      <path
         d="m 314.13351,38.181292 q 0,0.129823 -0.0974,0.227189 -0.0974,0.09737 -0.22719,0.09737 -0.14605,0 -0.24341,-0.09737 -0.0811,-0.09737 -0.0811,-0.227189 v -7.708194 q 0,-0.129822 0.0974,-0.227189 0.0974,-0.09737 0.22718,-0.09737 0.14605,0 0.22719,0.09737 0.0974,0.09737 0.0974,0.227189 z m -0.32456,-9.136238 q -0.25964,0 -0.42192,-0.14605 -0.14605,-0.14605 -0.14605,-0.373239 v -0.129822 q 0,-0.227189 0.16228,-0.373239 0.16228,-0.14605 0.42192,-0.14605 0.22719,0 0.37324,0.14605 0.16228,0.14605 0.16228,0.373239 v 0.129822 q 0,0.227189 -0.16228,0.373239 -0.14605,0.14605 -0.38947,0.14605 z"
         style="font-style:normal;font-variant:normal;font-weight:300;font-stretch:normal;font-family:Quicksand;-inkscape-font-specification:'Quicksand Light';stroke-width:0.26458332;fill:#ffffff"
         id="path881"
         inkscape:connector-curvature="0" />
      <path
         d="m 320.49607,30.148543 q 1.44427,0 2.17452,0.860072 0.73025,0.843844 0.73025,2.206977 v 4.9657 q 0,0.129823 -0.0974,0.227189 -0.0974,0.09737 -0.22718,0.09737 -0.14605,0 -0.24342,-0.09737 -0.0811,-0.09737 -0.0811,-0.227189 v -4.900788 q 0,-1.103489 -0.5842,-1.801284 -0.56797,-0.714022 -1.73637,-0.714022 -0.71402,0 -1.41182,0.340783 -0.68157,0.340784 -1.11972,0.924984 -0.43815,0.5842 -0.43815,1.249539 v 4.900788 q 0,0.129823 -0.0974,0.227189 -0.0974,0.09737 -0.22719,0.09737 -0.14605,0 -0.24342,-0.09737 -0.0811,-0.09737 -0.0811,-0.227189 v -7.448549 q 0,-0.129823 0.0974,-0.227189 0.0974,-0.09737 0.22719,-0.09737 0.14605,0 0.22719,0.09737 0.0974,0.09737 0.0974,0.227189 v 1.087261 q 0.47061,-0.73025 1.31445,-1.200856 0.86008,-0.470605 1.72015,-0.470605 z"
         style="font-style:normal;font-variant:normal;font-weight:300;font-stretch:normal;font-family:Quicksand;-inkscape-font-specification:'Quicksand Light';stroke-width:0.26458332;fill:#ffffff"
         id="path883"
         inkscape:connector-curvature="0" />
      <path
         d="m 332.50893,36.558515 q 0.1136,0 0.19474,0.09737 0.0811,0.08114 0.0811,0.194734 0,0.113594 -0.0649,0.194733 -0.53551,0.714022 -1.33067,1.1684 -0.79516,0.454378 -1.70392,0.454378 -1.21708,0 -2.15829,-0.519289 -0.94122,-0.519289 -1.47673,-1.476728 -0.51929,-0.957439 -0.51929,-2.223205 0,-1.298223 0.50306,-2.271889 0.51929,-0.989895 1.36313,-1.509184 0.84385,-0.519288 1.80129,-0.519288 0.95744,0 1.76882,0.421922 0.82762,0.405694 1.34691,1.233311 0.51929,0.827616 0.55174,2.0447 0,0.129822 -0.0974,0.243416 -0.0974,0.09737 -0.22719,0.09737 h -6.37752 v 0.210961 q 0,1.006122 0.4057,1.849967 0.40569,0.827617 1.20085,1.31445 0.79516,0.486833 1.91488,0.486833 0.77893,0 1.4605,-0.373239 0.69779,-0.389466 1.08726,-0.973666 0.1136,-0.14605 0.27587,-0.14605 z m -3.31046,-5.760861 q -0.60043,0 -1.23331,0.324555 -0.61666,0.308328 -1.10349,0.941211 -0.47061,0.616656 -0.63289,1.509184 h 5.97183 v -0.14605 q -0.0811,-0.827617 -0.53552,-1.411817 -0.43815,-0.600428 -1.10349,-0.908756 -0.64911,-0.308327 -1.36313,-0.308327 z"
         style="font-style:normal;font-variant:normal;font-weight:300;font-stretch:normal;font-family:Quicksand;-inkscape-font-specification:'Quicksand Light';stroke-width:0.26458332;fill:#ffffff"
         id="path885"
         inkscape:connector-curvature="0" />
    </g>
  </g>
</svg>
